<svg xmlns="http://www.w3.org/2000/svg" width="32" height="32" viewBox="0 0 32 32">
  <defs>
    <linearGradient id="g" x1="0%" y1="0%" x2="100%" y2="100%">
      <stop offset="0%" style="stop-color:#00f5d4"/>
      <stop offset="100%" style="stop-color:#00e676"/>
    </linearGradient>
  </defs>
  <path d="M16 2L4 8v8c0 7.4 5.1 14.3 12 16 6.9-1.7 12-8.6 12-16V8L16 2z" fill="none" stroke="url(#g)" stroke-width="2"/>
  <path d="M16 8a4 4 0 100 8 4 4 0 000-8zm0 3a1 1 0 110 2 1 1 0 010-2z" fill="url(#g)"/>
  <path d="M11 21c0-1.7 1.3-3 3-3h4c1.7 0 3 1.3 3 3v1H11v-1z" fill="url(#g)" opacity="0.8"/>
</svg>
